<!DOCTYPE svg PUBLIC "-//W3C//DTD SVG 20010904//EN" "http://www.w3.org/TR/2001/REC-SVG-20010904/DTD/svg10.dtd">
<svg version="1.0" xmlns="http://www.w3.org/2000/svg" width="1000px" height="1000px" viewBox="0 0 10000 10000" preserveAspectRatio="xMidYMid meet">
<g id="layer101" fill="#060607" stroke="none">
<path d="M0 5000 l0 -5000 5000 0 5000 0 0 5000 0 5000 -5000 0 -5000 0 0 -5000z"/>
</g>
<g id="layer102" fill="#e01530" stroke="none">
<path d="M160 5000 l0 -4850 4840 0 4840 0 0 4850 0 4850 -4840 0 -4840 0 0 -4850z m8317 -211 c115 -25 215 -97 300 -217 54 -75 57 -73 67 54 4 43 9 94 12 112 l5 32 114 0 c63 0 116 -4 119 -9 7 -11 23 -141 82 -681 25 -228 51 -471 59 -540 7 -69 30 -264 49 -435 20 -170 40 -344 45 -385 4 -41 6 -78 4 -82 -6 -11 -641 -10 -647 1 -7 10 -56 429 -56 474 0 26 2 27 48 27 57 0 72 12 66 54 -2 17 -27 240 -55 496 -55 506 -61 533 -121 570 -37 23 -57 25 -91 9 -37 -17 -49 -46 -48 -118 1 -64 43 -460 116 -1081 19 -162 77 -682 130 -1155 52 -473 100 -884 106 -914 15 -72 52 -111 107 -111 56 0 74 24 74 97 -1 32 -20 238 -43 458 -24 221 -40 409 -36 419 7 18 20 18 270 11 144 -4 264 -9 267 -11 5 -5 73 -578 91 -769 44 -459 -80 -696 -385 -735 -136 -18 -339 -8 -456 21 -135 35 -276 153 -345 289 -80 158 -87 208 -215 1390 -11 102 -48 428 -81 725 -33 297 -66 596 -74 665 -8 69 -26 229 -42 355 -37 316 -40 593 -5 705 30 96 59 146 117 199 53 49 117 79 195 91 60 9 191 4 257 -11z m-7380 -31 c11 -12 35 -194 68 -513 9 -82 41 -364 70 -625 71 -618 245 -2177 291 -2605 3 -33 11 -66 16 -72 8 -9 52 -13 159 -13 106 0 150 -3 155 -12 10 -16 64 -500 57 -511 -5 -8 -1179 -1 -1192 8 -5 2 -11 30 -15 62 -26 218 -46 402 -46 426 l0 27 155 0 c134 0 157 2 162 16 6 17 1 69 -48 519 -16 149 -41 374 -54 500 -79 727 -196 1781 -204 1845 -6 41 -13 102 -15 135 -3 33 -21 204 -41 380 -53 468 -51 432 -29 437 11 2 127 5 260 7 189 2 243 -1 251 -11z m651 0 c12 -15 38 -148 132 -677 43 -241 74 -387 82 -392 20 -13 316 -11 340 2 19 10 20 17 14 107 -7 119 -31 801 -31 897 l0 70 262 3 263 2 4 -22 c5 -20 12 -209 41 -1098 3 -91 10 -275 15 -410 5 -135 14 -393 20 -575 6 -181 20 -594 30 -916 38 -1123 43 -1317 37 -1333 -6 -14 -51 -16 -431 -16 -239 0 -427 4 -430 9 -5 8 -48 241 -257 1396 -33 182 -91 501 -129 710 -38 209 -81 443 -94 520 -14 77 -46 255 -71 395 -25 140 -59 327 -75 415 -16 88 -47 259 -69 380 -22 121 -52 283 -66 360 -14 77 -27 146 -30 153 -3 8 -3 18 1 23 9 15 430 11 442 -3z m2101 -5 c5 -10 12 -47 15 -83 4 -36 13 -117 21 -180 8 -63 16 -141 20 -172 l5 -58 -182 0 c-101 0 -189 -4 -196 -8 -9 -6 -10 -26 -2 -88 5 -43 23 -212 40 -374 17 -162 42 -389 55 -505 13 -115 47 -419 75 -675 28 -256 73 -665 100 -910 27 -245 63 -573 80 -730 16 -157 35 -325 40 -375 6 -49 12 -111 15 -136 l5 -46 -47 -5 c-62 -7 -490 -5 -496 2 -8 7 -20 107 -82 685 -30 281 -60 548 -65 595 -11 88 -91 819 -230 2095 -44 407 -87 792 -94 855 -8 63 -12 118 -9 123 2 4 211 7 463 7 427 0 460 -1 469 -17z m630 8 c14 -9 31 -148 111 -901 90 -858 117 -1068 119 -927 1 26 7 215 15 420 8 205 20 525 26 712 7 187 15 421 19 520 l6 180 225 3 c124 2 240 0 259 -3 l33 -6 -6 -152 c-6 -148 -30 -835 -61 -1767 -8 -250 -15 -497 -15 -548 0 -103 2 -109 178 -677 50 -159 127 -409 170 -555 44 -146 104 -341 133 -435 69 -226 67 -211 29 -218 -17 -4 -121 -4 -230 0 l-199 6 -40 126 c-22 69 -55 178 -75 241 -19 63 -70 230 -114 370 -44 140 -119 388 -167 550 -104 353 -94 324 -100 318 -5 -4 25 -282 55 -513 18 -142 120 -1052 120 -1074 0 -21 -2 -21 -259 -21 -239 0 -260 1 -265 18 -3 9 -21 166 -41 347 -40 366 -80 728 -95 850 -5 44 -19 168 -30 275 -20 191 -30 278 -70 625 -27 229 -75 657 -100 895 -24 229 -54 499 -76 695 -59 526 -71 641 -67 648 6 10 495 9 512 -2z m1480 -13 c5 -13 40 -311 80 -663 39 -352 105 -941 146 -1310 41 -368 88 -796 105 -950 16 -154 37 -338 45 -410 36 -298 105 -949 105 -981 l0 -34 -267 2 -267 3 -7 30 c-7 28 -81 688 -184 1640 -25 231 -57 517 -70 635 -14 118 -32 278 -39 355 -13 124 -145 1310 -177 1583 -10 88 -10 105 2 113 8 5 128 9 267 9 l252 0 9 -22z m690 0 c5 -13 20 -131 35 -263 15 -132 31 -278 36 -325 5 -47 19 -173 30 -280 12 -107 41 -375 65 -595 24 -220 52 -480 61 -577 10 -98 20 -175 23 -172 3 3 6 123 7 267 2 243 11 464 50 1227 8 162 19 392 24 510 5 118 10 216 10 218 0 1 134 2 299 2 l299 0 6 -32 c9 -55 34 -272 81 -723 51 -484 90 -841 105 -960 5 -44 41 -381 80 -750 38 -369 79 -749 90 -845 11 -96 31 -283 45 -415 14 -132 32 -292 40 -355 8 -63 17 -152 21 -197 l7 -83 -216 0 c-119 0 -218 4 -221 8 -3 5 -12 71 -20 148 -8 76 -24 218 -35 314 -26 225 -49 430 -60 550 -6 52 -26 235 -45 405 -20 171 -47 420 -60 554 -14 134 -27 245 -29 247 -2 2 -7 -112 -10 -253 -4 -142 -11 -332 -16 -423 -19 -324 -40 -765 -62 -1245 -6 -132 -13 -255 -15 -273 l-5 -32 -286 2 -286 3 -8 25 c-4 14 -14 93 -23 175 -9 83 -23 206 -31 275 -8 69 -23 208 -35 310 -135 1230 -199 1815 -280 2585 -45 424 -84 775 -101 903 -5 41 -7 78 -3 83 3 5 100 9 215 9 208 0 210 0 218 -22z"/>
</g>
<g id="layer103" fill="#f9f8f9" stroke="none">
<path d="M7477 9539 c-137 -12 -249 -78 -311 -182 -91 -157 -97 -345 -27 -932 16 -131 51 -434 62 -525 5 -47 11 -91 14 -97 3 -10 66 -13 265 -13 143 0 260 2 260 5 0 3 -14 119 -30 258 -37 303 -86 726 -95 819 -9 88 6 135 48 153 34 14 67 7 101 -23 40 -36 45 -64 100 -547 9 -77 25 -215 36 -307 26 -217 26 -332 1 -390 -11 -24 -70 -114 -133 -200 -62 -87 -135 -190 -163 -230 -27 -39 -71 -99 -96 -134 -65 -88 -115 -187 -140 -279 -33 -120 -29 -246 20 -685 58 -523 78 -620 151 -758 50 -93 82 -133 150 -185 132 -103 208 -126 440 -134 133 -5 177 -2 227 10 134 35 218 99 273 208 75 147 87 297 50 630 -45 421 -62 566 -69 604 l-7 40 -263 3 -264 2 6 -72 c3 -40 22 -215 41 -388 20 -173 39 -341 42 -372 10 -95 -24 -158 -84 -158 -33 0 -87 57 -101 105 -6 22 -29 202 -52 400 -42 378 -43 434 -10 510 10 22 113 173 230 335 199 278 253 366 297 485 29 79 25 331 -10 615 -15 124 -31 266 -36 315 -9 81 -21 177 -49 395 -41 311 -142 515 -311 630 -70 48 -115 67 -188 79 -85 14 -275 19 -375 10z"/>
<path d="M1423 9512 c-8 -5 0 -107 32 -392 104 -926 187 -1669 205 -1840 11 -102 51 -473 90 -825 38 -352 85 -783 104 -957 19 -175 38 -322 41 -328 4 -6 104 -10 271 -10 l264 0 0 31 c0 17 -41 396 -91 842 -50 447 -93 842 -96 879 l-6 67 37 7 c37 6 132 1 141 -8 8 -8 39 -274 155 -1337 28 -256 53 -468 56 -473 3 -4 124 -8 270 -8 224 0 265 2 270 15 6 14 -14 200 -151 1415 -30 267 -70 627 -89 800 -20 173 -63 554 -96 845 -33 292 -78 694 -100 895 -23 201 -43 371 -45 378 -3 9 -65 12 -265 12 -231 0 -261 -2 -267 -16 -3 -9 6 -127 21 -263 61 -563 87 -793 101 -911 49 -413 87 -781 82 -795 -5 -12 -24 -15 -87 -15 -74 0 -81 2 -90 23 -5 12 -19 103 -30 202 -12 99 -25 216 -30 260 -14 118 -75 653 -125 1102 -24 216 -46 397 -50 403 -7 12 -503 14 -522 2z"/>
<path d="M2910 9483 c0 -28 58 -560 124 -1148 42 -374 120 -1083 141 -1290 9 -82 38 -352 65 -600 27 -247 70 -636 94 -863 25 -228 46 -415 48 -417 5 -5 141 -6 586 -6 l382 1 0 48 c0 26 -11 139 -25 252 -14 113 -25 211 -25 218 0 9 -48 12 -207 12 -115 0 -214 4 -221 8 -13 9 -157 1254 -148 1279 4 10 49 13 216 13 207 0 210 0 210 21 0 59 -54 486 -62 497 -8 9 -63 12 -214 12 -203 0 -205 0 -214 23 -5 12 -19 108 -30 212 -12 105 -41 368 -66 585 -64 567 -68 605 -61 623 6 15 30 17 217 17 115 0 210 4 210 9 0 21 -51 478 -55 499 l-5 22 -480 0 -480 0 0 -27z"/>
<path d="M3986 9501 c-6 -8 66 -432 134 -791 42 -225 159 -880 314 -1760 19 -107 53 -294 75 -415 22 -121 72 -398 111 -615 39 -217 85 -471 101 -565 17 -93 36 -176 41 -182 8 -10 97 -13 383 -13 205 0 394 3 420 7 l48 6 -7 211 c-3 116 -11 324 -16 461 -16 410 -39 1040 -50 1365 -6 168 -15 418 -20 555 -5 138 -21 581 -35 985 -14 404 -28 741 -30 748 -3 9 -63 12 -255 12 -218 0 -251 -2 -257 -16 -3 -8 1 -200 8 -427 8 -227 14 -461 14 -522 l0 -110 -172 -3 c-157 -2 -172 -1 -177 15 -6 21 -61 314 -106 568 -41 235 -79 444 -85 473 -5 22 -6 22 -220 22 -117 0 -216 -4 -219 -9z m998 -1609 c2 -4 11 -221 20 -482 20 -606 34 -945 46 -1140 31 -511 28 -509 -60 45 -22 138 -49 300 -60 360 -11 61 -29 160 -39 220 -11 61 -53 297 -95 525 -69 382 -80 451 -77 473 1 9 258 9 265 -1z"/>
<path d="M5574 9496 c-3 -8 -1 -56 5 -107 51 -450 73 -642 86 -749 19 -154 146 -1312 175 -1585 11 -110 29 -276 40 -370 11 -93 40 -350 65 -570 88 -781 106 -930 117 -942 14 -17 749 -19 847 -2 221 38 333 197 348 494 5 114 5 119 -62 695 -20 168 -62 541 -95 830 -32 289 -73 643 -90 788 -16 144 -44 380 -60 525 -43 368 -48 401 -75 502 -62 235 -181 386 -364 460 -89 36 -199 45 -584 45 -288 0 -349 -2 -353 -14z m738 -493 c11 -10 27 -31 35 -46 16 -32 27 -115 133 -1072 16 -143 40 -363 54 -490 121 -1084 176 -1600 176 -1639 0 -57 -30 -94 -82 -103 -76 -12 -84 -4 -97 94 -15 123 -114 976 -156 1348 -19 171 -46 407 -60 525 -141 1217 -158 1377 -151 1395 5 15 16 17 67 12 38 -3 68 -12 81 -24z"/>
<path d="M160 2550 l0 -2400 4840 0 4840 0 0 2400 0 2400 -4840 0 -4840 0 0 -2400z m8317 2239 c115 -25 215 -97 300 -217 54 -75 57 -73 67 54 4 43 9 94 12 112 l5 32 114 0 c63 0 116 -4 119 -9 7 -11 23 -141 82 -681 25 -228 51 -471 59 -540 7 -69 30 -264 49 -435 20 -170 40 -344 45 -385 4 -41 6 -78 4 -82 -6 -11 -641 -10 -647 1 -7 10 -56 429 -56 474 0 26 2 27 48 27 57 0 72 12 66 54 -2 17 -27 240 -55 496 -55 506 -61 533 -121 570 -37 23 -57 25 -91 9 -37 -17 -49 -46 -48 -118 1 -64 43 -460 116 -1081 19 -162 77 -682 130 -1155 52 -473 100 -884 106 -914 15 -72 52 -111 107 -111 56 0 74 24 74 97 -1 32 -20 238 -43 458 -24 221 -40 409 -36 419 7 18 20 18 270 11 144 -4 264 -9 267 -11 5 -5 73 -578 91 -769 44 -459 -80 -696 -385 -735 -136 -18 -339 -8 -456 21 -135 35 -276 153 -345 289 -80 158 -87 208 -215 1390 -11 102 -48 428 -81 725 -33 297 -66 596 -74 665 -8 69 -26 229 -42 355 -37 316 -40 593 -5 705 30 96 59 146 117 199 53 49 117 79 195 91 60 9 191 4 257 -11z m-7380 -31 c11 -12 35 -194 68 -513 9 -82 41 -364 70 -625 71 -618 245 -2177 291 -2605 3 -33 11 -66 16 -72 8 -9 52 -13 159 -13 106 0 150 -3 155 -12 10 -16 64 -500 57 -511 -5 -8 -1179 -1 -1192 8 -5 2 -11 30 -15 62 -26 218 -46 402 -46 426 l0 27 155 0 c134 0 157 2 162 16 6 17 1 69 -48 519 -16 149 -41 374 -54 500 -79 727 -196 1781 -204 1845 -6 41 -13 102 -15 135 -3 33 -21 204 -41 380 -53 468 -51 432 -29 437 11 2 127 5 260 7 189 2 243 -1 251 -11z m651 0 c12 -15 38 -148 132 -677 43 -241 74 -387 82 -392 20 -13 316 -11 340 2 19 10 20 17 14 107 -7 119 -31 801 -31 897 l0 70 262 3 263 2 4 -22 c5 -20 12 -209 41 -1098 3 -91 10 -275 15 -410 5 -135 14 -393 20 -575 6 -181 20 -594 30 -916 38 -1123 43 -1317 37 -1333 -6 -14 -51 -16 -431 -16 -239 0 -427 4 -430 9 -5 8 -48 241 -257 1396 -33 182 -91 501 -129 710 -38 209 -81 443 -94 520 -14 77 -46 255 -71 395 -25 140 -59 327 -75 415 -16 88 -47 259 -69 380 -22 121 -52 283 -66 360 -14 77 -27 146 -30 153 -3 8 -3 18 1 23 9 15 430 11 442 -3z m2101 -5 c5 -10 12 -47 15 -83 4 -36 13 -117 21 -180 8 -63 16 -141 20 -172 l5 -58 -182 0 c-101 0 -189 -4 -196 -8 -9 -6 -10 -26 -2 -88 5 -43 23 -212 40 -374 17 -162 42 -389 55 -505 13 -115 47 -419 75 -675 28 -256 73 -665 100 -910 27 -245 63 -573 80 -730 16 -157 35 -325 40 -375 6 -49 12 -111 15 -136 l5 -46 -47 -5 c-62 -7 -490 -5 -496 2 -8 7 -20 107 -82 685 -30 281 -60 548 -65 595 -11 88 -91 819 -230 2095 -44 407 -87 792 -94 855 -8 63 -12 118 -9 123 2 4 211 7 463 7 427 0 460 -1 469 -17z m630 8 c14 -9 31 -148 111 -901 90 -858 117 -1068 119 -927 1 26 7 215 15 420 8 205 20 525 26 712 7 187 15 421 19 520 l6 180 225 3 c124 2 240 0 259 -3 l33 -6 -6 -152 c-6 -148 -30 -835 -61 -1767 -8 -250 -15 -497 -15 -548 0 -103 2 -109 178 -677 50 -159 127 -409 170 -555 44 -146 104 -341 133 -435 69 -226 67 -211 29 -218 -17 -4 -121 -4 -230 0 l-199 6 -40 126 c-22 69 -55 178 -75 241 -19 63 -70 230 -114 370 -44 140 -119 388 -167 550 -104 353 -94 324 -100 318 -5 -4 25 -282 55 -513 18 -142 120 -1052 120 -1074 0 -21 -2 -21 -259 -21 -239 0 -260 1 -265 18 -3 9 -21 166 -41 347 -40 366 -80 728 -95 850 -5 44 -19 168 -30 275 -20 191 -30 278 -70 625 -27 229 -75 657 -100 895 -24 229 -54 499 -76 695 -59 526 -71 641 -67 648 6 10 495 9 512 -2z m1480 -13 c5 -13 40 -311 80 -663 39 -352 105 -941 146 -1310 41 -368 88 -796 105 -950 16 -154 37 -338 45 -410 36 -298 105 -949 105 -981 l0 -34 -267 2 -267 3 -7 30 c-7 28 -81 688 -184 1640 -25 231 -57 517 -70 635 -14 118 -32 278 -39 355 -13 124 -145 1310 -177 1583 -10 88 -10 105 2 113 8 5 128 9 267 9 l252 0 9 -22z m690 0 c5 -13 20 -131 35 -263 15 -132 31 -278 36 -325 5 -47 19 -173 30 -280 12 -107 41 -375 65 -595 24 -220 52 -480 61 -577 10 -98 20 -175 23 -172 3 3 6 123 7 267 2 243 11 464 50 1227 8 162 19 392 24 510 5 118 10 216 10 218 0 1 134 2 299 2 l299 0 6 -32 c9 -55 34 -272 81 -723 51 -484 90 -841 105 -960 5 -44 41 -381 80 -750 38 -369 79 -749 90 -845 11 -96 31 -283 45 -415 14 -132 32 -292 40 -355 8 -63 17 -152 21 -197 l7 -83 -216 0 c-119 0 -218 4 -221 8 -3 5 -12 71 -20 148 -8 76 -24 218 -35 314 -26 225 -49 430 -60 550 -6 52 -26 235 -45 405 -20 171 -47 420 -60 554 -14 134 -27 245 -29 247 -2 2 -7 -112 -10 -253 -4 -142 -11 -332 -16 -423 -19 -324 -40 -765 -62 -1245 -6 -132 -13 -255 -15 -273 l-5 -32 -286 2 -286 3 -8 25 c-4 14 -14 93 -23 175 -9 83 -23 206 -31 275 -8 69 -23 208 -35 310 -135 1230 -199 1815 -280 2585 -45 424 -84 775 -101 903 -5 41 -7 78 -3 83 3 5 100 9 215 9 208 0 210 0 218 -22z"/>
<path d="M2050 3143 c0 -13 94 -537 159 -883 56 -300 102 -572 167 -990 46 -291 50 -264 24 166 -19 340 -28 552 -50 1264 -6 190 -13 369 -16 398 l-5 52 -140 0 c-76 0 -139 -3 -139 -7z"/>
</g>


</svg>